<?xml version="1.0" encoding="UTF-8"?>
<!DOCTYPE svg PUBLIC "-//W3C//DTD SVG 1.1//EN" "http://www.w3.org/Graphics/SVG/1.1/DTD/svg11.dtd">
<!-- Creator: CorelDRAW 2017 -->
<svg xmlns="http://www.w3.org/2000/svg" xml:space="preserve" width="977px" height="1008px" version="1.1" style="shape-rendering:geometricPrecision; text-rendering:geometricPrecision; image-rendering:optimizeQuality; fill-rule:evenodd; clip-rule:evenodd"
viewBox="0 0 493.29 508.96"
 xmlns:xlink="http://www.w3.org/1999/xlink">
 <defs>
  <style type="text/css">
   <![CDATA[
    .str0 {stroke:#EBECEC;stroke-width:1.19;stroke-miterlimit:22.9256}
    .fil0 {fill:#F7F7F7}
    .fil2 {fill:#EBECEC}
    .fil3 {fill:#EBECEC}
    .fil1 {fill:#898989}
   ]]>
  </style>
 </defs>
 <g id="Слой_x0020_1">
  <metadata id="CorelCorpID_0Corel-Layer"/>
  <rect class="fil0 str0" x="0.6" y="0.6" width="492.1" height="507.76" rx="13.99" ry="14.13"/>
  <path class="fil1" d="M492.7 433.81l-492.1 0 0 0.63 0 0.62 0 0.63c0,12.34 0.03,24.7 0,37.04l0 21.64c0.77,4.83 2.93,8.51 8.28,11.08 1.83,0.88 9.38,1.52 20.72,1.97l217.05 0 220.5 0c9.84,-0.39 16.23,-0.93 17.59,-1.65 4.26,-2.25 6.66,-7.87 7.96,-15.16l0 -56.8z"/>
  <path class="fil2" d="M51.07 160.42c0,4.93 3.49,8.42 8.41,8.42l374.33 0c11.21,0 11.21,-16.83 0,-16.83l-374.33 0c-4.92,0 -8.41,3.49 -8.41,8.41z"/>
  <path class="fil2" d="M51.07 122.57c0,4.92 3.49,8.41 8.41,8.41l374.33 0c11.21,0 11.21,-16.82 0,-16.82l-374.33 0c-4.92,0 -8.41,3.49 -8.41,8.41z"/>
  <path class="fil2" d="M51.07 70c0,12.86 5.47,23.13 18.93,23.13l113.56 0c25.4,0 25.4,-42.06 0,-42.06l-113.56 0c-10.4,0 -18.93,8.53 -18.93,18.93z"/>
  <path class="fil2" d="M51.07 198.28c0,4.92 3.49,8.41 8.41,8.41l235.53 0c11.21,0 11.21,-16.82 0,-16.82l-235.53 0c-4.92,0 -8.41,3.49 -8.41,8.41z"/>
  <path class="fil2" d="M290.81 368.62c0,6.54 2.17,14.72 10.51,14.72l130.39 0c14.04,0 14.04,-25.23 0,-25.23l-130.39 0c-4.9,0 -10.51,5.61 -10.51,10.51z"/>
  <path class="fil2" d="M290.81 318.15c0,6.54 2.17,14.72 10.51,14.72l130.39 0c14.04,0 14.04,-25.24 0,-25.24l-130.39 0c-4.9,0 -10.51,5.62 -10.51,10.52z"/>
  <path class="fil2" d="M51.07 320.25c0,4.92 3.49,8.41 8.41,8.41l168.24 0c11.21,0 11.21,-16.82 0,-16.82l-168.24 0c-4.92,0 -8.41,3.49 -8.41,8.41z"/>
  <path class="fil2" d="M51.07 370.72c0,4.93 3.49,8.42 8.41,8.42l168.24 0c11.21,0 11.21,-16.83 0,-16.83l-168.24 0c-4.92,0 -8.41,3.49 -8.41,8.41z"/>
  <polygon class="fil2" points="51.07,257.16 442.22,257.16 442.22,255.06 51.07,255.06 "/>
  <path class="fil3" d="M51.02 469.85c0,9.02 3.84,16.23 13.29,16.23l229.23 0c17.84,0 17.84,-29.52 0,-29.52l-229.23 0c-7.3,0 -13.29,5.99 -13.29,13.29z"/>
 </g>
</svg>
