<?xml version="1.0" encoding="UTF-8"?>
<!DOCTYPE svg PUBLIC "-//W3C//DTD SVG 1.1//EN" "http://www.w3.org/Graphics/SVG/1.1/DTD/svg11.dtd">
<!-- Creator: CorelDRAW 2017 -->
<svg xmlns="http://www.w3.org/2000/svg" xml:space="preserve" width="144px" height="141px" version="1.1" style="shape-rendering:geometricPrecision; text-rendering:geometricPrecision; image-rendering:optimizeQuality; fill-rule:evenodd; clip-rule:evenodd"
viewBox="0 0 144 140.87"
 xmlns:xlink="http://www.w3.org/1999/xlink">
 <defs>
  <style type="text/css">
   <![CDATA[
    .fil0 {fill:#E89F71}
   ]]>
  </style>
 </defs>
 <g id="Слой_x0020_1">
  <metadata id="CorelCorpID_0Corel-Layer"/>
  <path class="fil0" d="M0 140.87l144 0 0 -140.87 -144 0 0 140.87zm109.79 -108.23c-0.44,-0.43 -0.98,-0.73 -1.58,-0.86 -0.61,-0.13 -1.23,-0.09 -1.81,0.12l-71.01 25.82c-0.61,0.23 -1.13,0.65 -1.51,1.19 -0.37,0.54 -0.57,1.17 -0.57,1.83 0,0.65 0.2,1.29 0.57,1.83 0.38,0.54 0.9,0.96 1.51,1.19l27.73 11.07 20.46 -20.53 4.55 4.55 -20.56 20.56 11.11 27.73c0.24,0.6 0.65,1.11 1.18,1.47 0.54,0.37 1.17,0.56 1.82,0.56 0.65,-0.01 1.28,-0.22 1.81,-0.6 0.53,-0.39 0.94,-0.92 1.16,-1.53l25.82 -71.01c0.22,-0.57 0.27,-1.19 0.15,-1.79 -0.12,-0.6 -0.41,-1.15 -0.83,-1.6z"/>
 </g>
</svg>
