<svg width="153" height="34" viewBox="0 0 153 34" fill="none" xmlns="http://www.w3.org/2000/svg">
<path d="M152.483 15.6429V12.9682H149.161V8.80993L149.049 8.84436L145.929 9.79891L145.868 9.8176V12.9683H140.944V11.2131C140.944 10.3958 141.126 9.77037 141.486 9.35327C141.844 8.94117 142.356 8.73166 143.008 8.73166C143.477 8.73166 143.963 8.84215 144.452 9.06004L144.574 9.11477V6.2979L144.517 6.27671C144.061 6.11281 143.44 6.03027 142.672 6.03027C141.703 6.03027 140.823 6.24111 140.055 6.65894C139.287 7.07737 138.682 7.6747 138.259 8.43417C137.837 9.19275 137.623 10.0689 137.623 11.0384V12.9682H135.31V15.6429H137.623V26.9112H140.944V15.6429H145.868V22.8037C145.868 25.7528 147.259 27.2473 150.003 27.2473C150.453 27.2473 150.928 27.1945 151.412 27.0911C151.906 26.9849 152.241 26.8788 152.439 26.7655L152.483 26.7396V24.0401L152.348 24.1294C152.168 24.2495 151.943 24.3476 151.68 24.4206C151.416 24.4949 151.195 24.5321 151.024 24.5321C150.382 24.5321 149.906 24.359 149.611 24.0172C149.313 23.6723 149.161 23.0693 149.161 22.2256V15.6429H152.483ZM127.895 24.5326C126.69 24.5326 125.74 24.133 125.071 23.3458C124.397 22.5548 124.055 21.4269 124.055 19.9939C124.055 18.5154 124.397 17.3583 125.071 16.5532C125.741 15.7534 126.682 15.3475 127.868 15.3475C129.02 15.3475 129.936 15.7352 130.593 16.5004C131.252 17.2695 131.587 18.4174 131.587 19.9131C131.587 21.4272 131.272 22.5902 130.652 23.3682C130.035 24.1403 129.108 24.5326 127.895 24.5326ZM128.043 12.6323C125.744 12.6323 123.918 13.306 122.616 14.6347C121.314 15.9635 120.655 17.8024 120.655 20.1008C120.655 22.2839 121.299 24.0398 122.569 25.3191C123.839 26.5988 125.568 27.247 127.707 27.247C129.936 27.247 131.725 26.5639 133.027 25.2169C134.328 23.8712 134.988 22.0497 134.988 19.805C134.988 17.5878 134.369 15.8187 133.148 14.548C131.927 13.2767 130.209 12.6323 128.043 12.6323ZM115.301 12.6323C113.737 12.6323 112.443 13.0323 111.455 13.821C110.461 14.6145 109.956 15.6551 109.956 16.9144C109.956 17.5689 110.065 18.1504 110.28 18.6435C110.495 19.1383 110.829 19.574 111.272 19.9396C111.712 20.3023 112.39 20.6821 113.29 21.0686C114.046 21.3798 114.61 21.643 114.968 21.8505C115.319 22.0538 115.567 22.2581 115.708 22.4572C115.844 22.652 115.913 22.9186 115.913 23.2476C115.913 24.1843 115.212 24.6401 113.768 24.6401C113.233 24.6401 112.622 24.5283 111.953 24.3079C111.289 24.0908 110.662 23.773 110.094 23.3654L109.956 23.2665V26.4632L110.007 26.4867C110.477 26.7036 111.069 26.8864 111.767 27.0303C112.464 27.1744 113.097 27.2476 113.647 27.2476C115.344 27.2476 116.711 26.8457 117.708 26.0522C118.712 25.2533 119.22 24.1881 119.22 22.8853C119.22 21.9455 118.946 21.1395 118.407 20.4895C117.871 19.8448 116.94 19.2529 115.643 18.7298C114.609 18.3149 113.947 17.9704 113.674 17.7061C113.41 17.4507 113.277 17.0895 113.277 16.632C113.277 16.2266 113.442 15.9017 113.781 15.6386C114.122 15.3743 114.597 15.2398 115.194 15.2398C115.747 15.2398 116.313 15.3272 116.876 15.4984C117.438 15.6697 117.932 15.8991 118.345 16.1796L118.48 16.2723V13.24L118.428 13.2177C118.048 13.0545 117.546 12.9149 116.937 12.8016C116.33 12.6891 115.78 12.6323 115.301 12.6323ZM101.301 24.5326C100.096 24.5326 99.1452 24.133 98.4758 23.3458C97.8019 22.5548 97.4612 21.4272 97.4612 19.9939C97.4612 18.5154 97.8024 17.3583 98.4765 16.5532C99.146 15.7534 100.087 15.3475 101.274 15.3475C102.425 15.3475 103.341 15.7352 103.998 16.5004C104.658 17.2695 104.993 18.4174 104.993 19.9131C104.993 21.4272 104.678 22.5902 104.057 23.3682C103.44 24.1403 102.513 24.5326 101.301 24.5326ZM101.449 12.6323C99.1488 12.6323 97.3224 13.306 96.021 14.6347C94.7198 15.9635 94.0596 17.8024 94.0596 20.1008C94.0596 22.2848 94.7041 24.0398 95.9744 25.3191C97.2447 26.5988 98.9734 27.247 101.112 27.247C103.341 27.247 105.131 26.5639 106.433 25.2169C107.734 23.8712 108.393 22.0497 108.393 19.805C108.393 17.5878 107.774 15.8187 106.553 14.548C105.332 13.2767 103.614 12.6323 101.449 12.6323ZM89.0195 15.3828V12.9682H85.7397V26.9109H89.0195V19.7786C89.0195 18.5659 89.2945 17.5695 89.8371 16.817C90.3728 16.0734 91.0867 15.6966 91.9583 15.6966C92.2537 15.6966 92.5854 15.7453 92.9445 15.8417C93.3 15.9375 93.5575 16.0415 93.7093 16.1509L93.8472 16.2508V12.9443L93.7941 12.9215C93.4886 12.7918 93.0565 12.7263 92.5098 12.7263C91.6855 12.7263 90.948 12.9911 90.3162 13.5125C89.7616 13.9708 89.3609 14.5992 89.0544 15.3828H89.0195ZM79.866 12.6323C78.3613 12.6323 77.0192 12.9549 75.8776 13.5909C74.7336 14.2284 73.8489 15.1386 73.247 16.2959C72.6477 17.4504 72.3435 18.7989 72.3435 20.3028C72.3435 21.6202 72.6385 22.8291 73.2216 23.8946C73.8049 24.9619 74.6306 25.7968 75.6759 26.3759C76.7196 26.9543 77.9259 27.2475 79.2616 27.2475C80.8203 27.2475 82.1511 26.9359 83.2181 26.3213L83.2612 26.2966V23.2919L83.1234 23.3925C82.64 23.7446 82.0999 24.0256 81.5187 24.228C80.939 24.4303 80.4106 24.5326 79.9471 24.5326C78.6601 24.5326 77.627 24.1299 76.877 23.336C76.1255 22.5411 75.7444 21.4248 75.7444 20.0202C75.7444 18.6068 76.1418 17.4618 76.925 16.617C77.7058 15.7747 78.7409 15.3475 80.0012 15.3475C81.0793 15.3475 82.1298 15.7125 83.1236 16.4334L83.2612 16.5333V13.3673L83.2168 13.3423C82.8428 13.1329 82.3327 12.9601 81.6994 12.829C81.0688 12.6982 80.452 12.6323 79.866 12.6323ZM70.0846 12.9683H66.8047V26.9109H70.0846V12.9683ZM68.4782 7.02867C67.9384 7.02867 67.4675 7.21243 67.0807 7.57657C66.6923 7.94174 66.4953 8.40151 66.4953 8.94411C66.4953 9.47818 66.69 9.92956 67.0747 10.285C67.4569 10.6394 67.9292 10.8191 68.4783 10.8191C69.0273 10.8191 69.5013 10.6394 69.8881 10.2856C70.2775 9.92956 70.4749 9.47832 70.4749 8.94411C70.4749 8.42049 70.2828 7.96542 69.9042 7.59128C69.5259 7.21788 69.046 7.02867 68.4782 7.02867ZM60.2947 11.9396V26.9109H63.642V7.45548H59.0092L53.1208 21.9064L47.4063 7.45548H42.585V26.9107H45.7305V11.9381H45.8385L51.8728 26.9109H54.2466L60.1867 11.9396H60.2947Z" fill="#A2BDE6"/>
<path d="M15.8161 16.3829H0.386719V0.954102H15.8161V16.3829Z" fill="#A2BDE6"/>
<path d="M32.8539 16.3829H17.4248V0.954102H32.8539V16.3829Z" fill="#A2BDE6"/>
<path d="M15.8157 33.4238H0.386719V17.9951H15.8157V33.4238Z" fill="#A2BDE6"/>
<path d="M32.8539 33.4238H17.4248V17.9951H32.8539V33.4238Z" fill="#A2BDE6"/>
</svg>
