<svg width="134" height="49" viewBox="0 0 134 49" fill="none" xmlns="http://www.w3.org/2000/svg">
<g clip-path="url(#clip0_2_1878)">
<path d="M56.6163 25.0151C52.5939 25.0151 50.5827 23.0622 50.5827 19.1564V13.6766H48.4791L47.2646 10.3829H50.5827V6.18555H54.984V10.3829H59.2105V13.6766H54.984V18.9815C54.984 19.7977 55.1686 20.4097 55.5378 20.8178C55.9265 21.2258 56.5386 21.4299 57.3742 21.4299C57.7802 21.4299 58.2164 21.3683 58.6071 21.2534L59.7352 24.3155C59.3271 24.5293 58.8413 24.6944 58.2777 24.811C57.7142 24.9471 57.1604 25.0151 56.6163 25.0151Z" fill="#A2BDE6"/>
<path d="M61.376 24.6946V6.07227H65.7773V12.336C66.2826 11.5975 66.9335 11.0437 67.7302 10.6745C68.527 10.2859 69.4111 10.0916 70.3827 10.0916C73.7445 10.0916 75.4253 12.0931 75.4253 16.0961V24.6946H71.024V16.3001C71.024 15.3091 70.8394 14.5998 70.4702 14.1723C70.101 13.7253 69.5569 13.5019 68.8379 13.5019C67.9051 13.5019 67.157 13.7934 66.5935 14.3763C66.0494 14.9593 65.7773 15.7366 65.7773 16.7082V24.6946H61.376Z" fill="#A2BDE6"/>
<path d="M86.143 25.0155C84.4525 25.0155 82.9951 24.7143 81.7708 24.1119C80.5661 23.4901 79.6333 22.6254 78.9726 21.5177C78.3314 20.3907 78.0107 19.0694 78.0107 17.5537C78.0107 16.0769 78.3217 14.7846 78.9435 13.677C79.5847 12.5499 80.4495 11.6755 81.5377 11.0537C82.6453 10.4124 83.9181 10.0918 85.3561 10.0918C87.4353 10.0918 89.087 10.7525 90.3112 12.0739C91.5354 13.3758 92.1475 15.1441 92.1475 17.3788V18.4864H82.2081C82.3635 19.6135 82.7716 20.4392 83.4323 20.9639C84.1124 21.4691 85.0451 21.7218 86.2305 21.7218C87.0078 21.7218 87.7948 21.6052 88.5915 21.372C89.3882 21.1388 90.1072 20.7793 90.7484 20.2935L91.9144 23.2375C91.1954 23.7816 90.3112 24.2188 89.2619 24.5491C88.232 24.86 87.1924 25.0155 86.143 25.0155ZM85.5309 13.0066C84.5982 13.0066 83.8404 13.2884 83.2574 13.8519C82.6939 14.4154 82.3441 15.2024 82.2081 16.2129H88.504C88.3874 14.0754 87.3964 13.0066 85.5309 13.0066Z" fill="#A2BDE6"/>
<path d="M94.7666 24.6949V10.3833H99.0805V12.4528C99.508 11.7144 100.091 11.1411 100.829 10.7331C101.587 10.3055 102.462 10.0918 103.453 10.0918C104.463 10.0918 105.318 10.3153 106.018 10.7622C106.737 11.2091 107.281 11.8893 107.65 12.8026C108.097 11.9476 108.738 11.2869 109.574 10.8205C110.429 10.3347 111.371 10.0918 112.401 10.0918C114.033 10.0918 115.248 10.5873 116.045 11.5783C116.841 12.5499 117.24 14.0559 117.24 16.0963V24.6949H112.838V16.242C112.838 15.2899 112.683 14.6 112.372 14.1725C112.081 13.7256 111.575 13.5021 110.856 13.5021C110.021 13.5021 109.37 13.7936 108.903 14.3766C108.437 14.9595 108.204 15.7854 108.204 16.8541V24.6949H103.802V16.242C103.802 15.2899 103.647 14.6 103.336 14.1725C103.025 13.7256 102.52 13.5021 101.82 13.5021C100.985 13.5021 100.334 13.7936 99.8675 14.3766C99.4011 14.9595 99.168 15.7854 99.168 16.8541V24.6949H94.7666Z" fill="#A2BDE6"/>
<path d="M127.639 25.0155C125.949 25.0155 124.491 24.7143 123.267 24.1119C122.062 23.4901 121.129 22.6254 120.469 21.5177C119.827 20.3907 119.507 19.0694 119.507 17.5537C119.507 16.0769 119.818 14.7846 120.44 13.677C121.081 12.5499 121.946 11.6755 123.034 11.0537C124.141 10.4124 125.414 10.0918 126.852 10.0918C128.931 10.0918 130.583 10.7525 131.807 12.0739C133.032 13.3758 133.644 15.1441 133.644 17.3788V18.4864H123.704C123.86 19.6135 124.268 20.4392 124.928 20.9639C125.608 21.4691 126.541 21.7218 127.727 21.7218C128.504 21.7218 129.291 21.6052 130.088 21.372C130.884 21.1388 131.603 20.7793 132.245 20.2935L133.41 23.2375C132.691 23.7816 131.807 24.2188 130.758 24.5491C129.728 24.86 128.688 25.0155 127.639 25.0155ZM127.027 13.0066C126.094 13.0066 125.336 13.2884 124.753 13.8519C124.19 14.4154 123.84 15.2024 123.704 16.2129H130C129.884 14.0754 128.893 13.0066 127.027 13.0066Z" fill="#A2BDE6"/>
<path d="M52.9927 41.381L47.1631 27.0693H51.6227L55.0331 36.251L58.4434 27.0693H61.3582L64.7685 36.3676L68.1788 27.0693H72.4053L66.634 41.381H62.903L59.755 33.2487L56.6945 41.381H52.9927Z" fill="#A2BDE6"/>
<path d="M77.9935 41.7607C76.9247 41.7607 75.9823 41.5567 75.1661 41.1486C74.35 40.7405 73.699 40.1867 73.2132 39.4872C72.7469 38.7876 72.5137 38.0006 72.5137 37.1262C72.5137 36.0963 72.7857 35.2704 73.3298 34.6486C73.8739 34.0268 74.7581 33.5895 75.9823 33.3369C77.2065 33.0649 78.8291 32.9289 80.85 32.9289H81.8993V32.4333C81.8993 31.5783 81.705 30.9759 81.3164 30.6262C80.9277 30.257 80.2671 30.0723 79.3343 30.0723C78.557 30.0723 77.7312 30.1987 76.8567 30.4513C76.0017 30.6845 75.1467 31.0439 74.2917 31.5297L73.0966 28.5858C73.6019 28.2555 74.214 27.9543 74.933 27.6822C75.6714 27.4102 76.4389 27.2061 77.2357 27.0701C78.0324 26.9146 78.7902 26.8369 79.5092 26.8369C81.7245 26.8369 83.3762 27.3421 84.4644 28.3526C85.5526 29.3436 86.0967 30.8885 86.0967 32.9872V41.4401H81.9868V39.2831C81.6953 40.041 81.1998 40.6434 80.5002 41.0903C79.8201 41.5372 78.9845 41.7607 77.9935 41.7607ZM78.9845 38.8168C79.8007 38.8168 80.4905 38.535 81.0541 37.9715C81.6176 37.4079 81.8993 36.6792 81.8993 35.7854V35.2024H80.8792C79.3829 35.2024 78.3238 35.3384 77.702 35.6105C77.0802 35.8631 76.7693 36.31 76.7693 36.9513C76.7693 37.4954 76.9539 37.9423 77.3231 38.2921C77.7117 38.6419 78.2656 38.8168 78.9845 38.8168Z" fill="#A2BDE6"/>
<path d="M95.9221 41.7609C94.2405 41.7609 92.8088 41.4481 91.6273 40.8227C90.4597 40.1972 89.3952 39.4161 88.6785 38.2582C87.9323 37.0528 87.7676 35.7564 87.7676 34.2552C87.7676 32.6984 87.97 31.2423 88.7797 30.095C89.6146 28.9116 90.5848 28.1673 91.7941 27.5419C93.0033 26.9164 94.5285 26.8662 96.1723 26.8662C97.0587 26.8662 98.1518 26.8917 99.0829 27.1698C100.014 27.4478 100.702 27.6759 101.385 28.1048L100.217 31.0654C99.1487 30.3686 97.686 30.095 96.1723 30.095C94.8522 30.095 93.7609 30.5688 93.0658 31.3194C92.3849 32.0699 92.0234 32.8375 92.0234 34.2552C92.0234 35.673 92.5179 36.6691 93.2128 37.3919C93.9079 38.1145 94.7894 38.5501 96.1515 38.5501C96.7909 38.5501 97.5067 38.4528 98.2989 38.2582V35.944H95.3592V33.2545H101.426V40.635C100.648 40.9963 99.7792 41.2745 98.8201 41.469C97.8611 41.6635 96.8952 41.7609 95.9221 41.7609Z" fill="#A2BDE6"/>
<path d="M110.62 41.7607C109.085 41.7607 107.745 41.4595 106.598 40.8571C105.471 40.2353 104.597 39.3706 103.975 38.2629C103.353 37.1359 103.042 35.8048 103.042 34.2697C103.042 32.754 103.353 31.4423 103.975 30.3347C104.597 29.2076 105.471 28.3429 106.598 27.7405C107.745 27.1381 109.085 26.8369 110.62 26.8369C112.156 26.8369 113.487 27.1381 114.614 27.7405C115.76 28.3429 116.644 29.2076 117.266 30.3347C117.907 31.4423 118.228 32.754 118.228 34.2697C118.228 35.8048 117.907 37.1359 117.266 38.2629C116.644 39.3706 115.76 40.2353 114.614 40.8571C113.487 41.4595 112.156 41.7607 110.62 41.7607ZM110.62 38.467C111.553 38.467 112.311 38.1269 112.894 37.4468C113.496 36.7667 113.798 35.7076 113.798 34.2697C113.798 32.8511 113.496 31.8115 112.894 31.1508C112.311 30.4707 111.553 30.1306 110.62 30.1306C109.688 30.1306 108.93 30.4707 108.347 31.1508C107.764 31.8115 107.472 32.8511 107.472 34.2697C107.472 35.7076 107.764 36.7667 108.347 37.4468C108.93 38.1269 109.688 38.467 110.62 38.467Z" fill="#A2BDE6"/>
<path d="M119.894 41.4401V27.1284H124.207V29.2271C124.693 28.4498 125.344 27.8571 126.16 27.449C126.977 27.041 127.89 26.8369 128.9 26.8369C130.591 26.8369 131.854 27.3324 132.69 28.3235C133.525 29.2951 133.943 30.801 133.943 32.8414V41.4401H129.542V33.0454C129.542 32.0544 129.357 31.3451 128.988 30.9176C128.619 30.4707 128.074 30.2472 127.355 30.2472C126.423 30.2472 125.675 30.5387 125.111 31.1217C124.567 31.7046 124.295 32.4819 124.295 33.4535V41.4401H119.894Z" fill="#A2BDE6"/>
<path d="M43.4857 25.7289C43.4857 21.9779 42.3694 18.1912 39.6659 15.591C37.7318 13.7308 35.7923 12.4731 32.705 10.7807C27.945 8.17161 21.6235 6.87062 21.6235 6.87062C24.8992 6.18934 27.7005 6.84163 27.8164 6.86882C18.2623 2.1923 11.417 5.45915 11.417 5.45915L6.81115 2.11621C5.91243 3.6998 6.48681 6.32887 6.83106 7.50842C6.94523 7.91428 6.88723 8.35818 6.65893 8.70608L3.7907 13.1307C3.67656 13.3047 3.60045 13.5185 3.60045 13.7504L3.52436 16.4555C2.01323 18.5809 1.23049 20.6683 0.828253 22.2917C0.445942 22.3696 0.121613 22.7374 0.0255821 23.2194C-0.0686367 23.7412 0.101682 24.225 0.465872 24.4369C0.407892 25.0567 0.427824 25.4045 0.427824 25.4045L2.93187 29.5392C3.37034 30.177 4.17301 30.4289 4.89958 30.1192L7.70984 28.9595C8.16825 28.7656 8.45453 28.3217 8.45453 27.8197V25.3646C8.45453 25.0948 8.55055 24.8428 8.72269 24.649C9.23908 24.0511 10.5962 22.9113 13.5387 22.9113C17.514 22.9113 18.5468 18.2149 18.2225 16.2816C18.2225 16.2816 19.7499 20.8821 16.9596 23.3932C15.7565 24.4768 15.6025 26.3303 16.5392 27.664C18.4653 30.6807 18.632 42.6429 5.76566 43.2987C10.1106 46.4497 15.4539 48.3069 21.232 48.3069C24.2199 48.3069 27.5737 47.5385 29.7679 46.8936C34.0638 45.2067 36.4558 43.2987 38.7984 40.744C42.3986 36.8177 42.8878 31.9146 41.9982 27.7037C39.9343 17.925 27.2438 9.05395 14.6277 7.16052C20.8407 8.08822 31.4527 10.1392 38.6842 18.1189C40.7497 20.3981 43.4857 25.7289 43.4857 25.7289ZM5.95049 17.0154C4.97569 14.852 8.28239 14.5621 8.28239 14.5621C7.82398 18.021 5.95049 17.0154 5.95049 17.0154Z" fill="#A2BDE6"/>
<path d="M11.8211 4.44277C13.4463 3.90464 14.3197 3.67634 15.8145 3.38461L10.6578 0C10.165 0.423984 9.38769 2.32828 10.0237 3.17444L11.8211 4.44277Z" fill="#A2BDE6"/>
</g>
<defs>
<clipPath id="clip0_2_1878">
<rect width="134" height="48.3776" fill="white"/>
</clipPath>
</defs>
</svg>
