<svg width="116" height="39" viewBox="0 0 116 39" fill="none" xmlns="http://www.w3.org/2000/svg">
<path d="M14.2525 0.253906H15.2816C18.8543 0.33177 22.3687 1.77224 24.8929 4.32227C23.9609 5.2761 23.0095 6.191 22.0969 7.14482C20.6794 5.86008 18.9708 4.86732 17.1068 4.51693C14.3496 3.93296 11.3788 4.45853 9.0682 6.03527C6.54402 7.68987 4.83534 10.493 4.46643 13.4907C4.05867 16.4495 4.89359 19.5641 6.81586 21.861C8.66045 24.0996 11.4759 25.5011 14.3884 25.5985C17.1068 25.7542 19.9416 24.9172 21.9221 23.0095C23.4755 21.6664 24.1939 19.6224 24.4269 17.6369C21.2037 17.6369 17.9805 17.6564 14.7573 17.6369V13.627H28.3297C29.0287 17.9289 28.019 22.7759 24.757 25.8515C22.5823 28.0317 19.5727 29.3165 16.5048 29.5695C13.5341 29.8615 10.4662 29.297 7.82553 27.8565C4.66059 26.163 2.13641 23.3015 0.893737 19.9339C-0.27127 16.8388 -0.290687 13.335 0.796653 10.2204C1.78691 7.37842 3.68975 4.86732 6.13627 3.11539C8.4857 1.38293 11.34 0.429099 14.2525 0.253906Z" fill="#A2BDE6"/>
<path d="M92.1133 1.2666H96.2684V29.0639C94.8899 29.0639 93.4919 29.0833 92.1133 29.0444C92.1327 19.7981 92.1133 10.5324 92.1133 1.2666V1.2666Z" fill="#A2BDE6"/>
<path d="M37.5707 10.9012C40.1337 10.4145 42.9103 10.9596 45.0267 12.4974C46.949 13.86 48.2887 16.0012 48.6965 18.3372C49.2207 21.0429 48.5606 24.0017 46.8131 26.143C44.9296 28.5373 41.8424 29.822 38.8328 29.6274C36.0756 29.4716 33.3961 28.0895 31.765 25.8315C29.9205 23.3399 29.4739 19.9139 30.4835 16.994C31.4932 13.86 34.3475 11.4657 37.5707 10.9012V10.9012ZM38.1532 14.5997C37.1047 14.8722 36.1338 15.4757 35.4348 16.3322C33.5514 18.5902 33.6679 22.2693 35.7455 24.3716C36.9299 25.5785 38.7163 26.143 40.3667 25.812C41.9006 25.5395 43.2404 24.5078 43.9782 23.1452C45.2597 20.8288 44.8908 17.6364 42.9297 15.8261C41.6676 14.6581 39.823 14.1715 38.1532 14.5997Z" fill="#A2BDE6"/>
<path d="M58.1534 10.9016C61.0854 10.3371 64.2892 11.1547 66.4833 13.2181C70.056 16.43 70.4443 22.4449 67.3959 26.1434C65.5513 28.4793 62.5611 29.7641 59.6097 29.6278C56.7943 29.55 54.0177 28.1484 52.3478 25.832C50.4644 23.2819 50.0566 19.7781 51.1246 16.7998C52.1925 13.7631 54.9885 11.4467 58.1534 10.9016V10.9016ZM58.7359 14.6002C57.6874 14.8727 56.7166 15.4761 56.0176 16.3132C54.1536 18.5323 54.2312 22.1529 56.2312 24.2747C57.4156 25.54 59.2602 26.1629 60.9689 25.8125C62.4834 25.5205 63.8426 24.5083 64.5804 23.1457C65.8425 20.8098 65.4736 17.6174 63.4931 15.807C62.231 14.6391 60.3864 14.1719 58.7359 14.6002Z" fill="#A2BDE6"/>
<path d="M75.6087 12.0313C77.8416 10.6297 80.8124 10.2404 83.2201 11.4473C83.9773 11.7782 84.5987 12.3427 85.2006 12.9072C85.22 12.3817 85.2006 11.8366 85.22 11.2916C86.5209 11.311 87.8218 11.2916 89.1422 11.311V28.4799C89.1228 31.0689 88.4626 33.8136 86.5986 35.7018C84.5598 37.7846 81.4337 38.427 78.6183 37.9987C75.6087 37.551 72.9874 35.3514 71.8224 32.5678C72.9874 32.0033 74.2107 31.5555 75.4145 31.03C76.0941 32.6262 77.4727 33.9888 79.2008 34.3002C80.9289 34.6117 82.9288 34.1834 84.055 32.743C85.2588 31.2636 85.2588 29.2391 85.2006 27.4288C84.3074 28.3047 83.2783 29.0834 82.0356 29.3754C79.3367 30.1345 76.3659 29.2002 74.2883 27.3704C72.1913 25.5406 70.9486 22.718 71.0651 19.915C71.1234 16.742 72.9097 13.6859 75.6087 12.0313V12.0313ZM79.628 14.5229C78.4435 14.7176 77.3368 15.3794 76.5795 16.2943C74.7543 18.4745 74.7543 21.9589 76.5989 24.1001C77.6474 25.3654 79.3367 26.0662 80.9677 25.891C82.5016 25.7352 83.9191 24.762 84.6763 23.4188C85.9578 21.1413 85.7442 18.0462 84.0162 16.0607C82.9482 14.8344 81.2396 14.2309 79.628 14.5229V14.5229Z" fill="#A2BDE6"/>
<path d="M101.258 13.0235C103.588 10.8433 107.181 10.1036 110.171 11.2521C113.006 12.3227 114.811 15.0285 115.724 17.8121C111.511 19.564 107.316 21.2965 103.103 23.0484C103.686 24.158 104.579 25.1702 105.783 25.579C107.472 26.1824 109.491 25.9683 110.909 24.8393C111.472 24.411 111.918 23.8465 112.345 23.3015C113.413 24.0217 114.481 24.7225 115.549 25.4427C114.035 27.7202 111.491 29.3164 108.753 29.5695C105.724 29.9393 102.501 28.7714 100.54 26.3966C97.3168 22.6591 97.6275 16.3911 101.258 13.0235V13.0235ZM103.336 16.6247C102.676 17.5785 102.404 18.7465 102.423 19.8949C105.239 18.727 108.054 17.559 110.87 16.3716C110.404 15.2815 109.278 14.6197 108.132 14.4445C106.287 14.1136 104.365 15.1063 103.336 16.6247V16.6247Z" fill="#A2BDE6"/>
</svg>
