<svg width="204" height="40" viewBox="0 0 204 40" fill="none" xmlns="http://www.w3.org/2000/svg">
<path d="M72.9671 30.1904V15.6441L67.2409 30.1904H65.3557L59.63 15.6467V30.1904H55.3066V10.0205H61.3658L66.2978 22.6288L71.2302 10.0205H77.319V30.1904H72.9671Z" fill="#A2BDE6"/>
<path d="M89.7361 30.1907V28.6461C88.7308 29.8553 86.9958 30.5505 85.0775 30.5505C82.733 30.5505 79.9932 28.9782 79.9932 25.7131C79.9932 22.266 82.733 20.9962 85.0775 20.9962C87.0567 20.9962 88.7613 21.6311 89.7361 22.7804V20.9357C89.7361 19.4542 88.4573 18.4865 86.5086 18.4865C84.9557 18.4865 83.4941 19.0916 82.2767 20.208L80.7531 17.5172C82.5476 15.9147 84.8631 15.2188 87.1771 15.2188C90.5569 15.2188 93.632 16.549 93.632 20.7516V30.1907H89.7361ZM89.7361 26.6828V24.8666C89.0965 24.0198 87.8784 23.5663 86.6301 23.5663C85.1069 23.5663 83.8598 24.3825 83.8598 25.7736C83.8598 27.165 85.108 27.9506 86.6301 27.9506C87.8784 27.9506 89.0991 27.527 89.7361 26.6802V26.6828Z" fill="#A2BDE6"/>
<path d="M96.748 30.1908V15.584H100.613V30.1908H96.748Z" fill="#A2BDE6"/>
<path d="M103.809 30.1904V10.0205H107.675V30.1904H103.809Z" fill="#A2BDE6"/>
<path d="M111.12 30.1904V10.0205H121.807C125.673 10.0205 127.652 12.4723 127.652 15.1605C127.652 17.6702 126.069 19.3933 124.151 19.7867C126.343 20.119 128.048 22.2051 128.048 24.715C128.048 27.7687 126.038 30.1878 122.142 30.1878L111.12 30.1904ZM123.238 15.919C123.238 14.6795 122.324 13.8026 120.863 13.8026H115.442V18.0354H120.861C122.323 18.0354 123.236 17.219 123.236 15.919H123.238ZM123.634 24.1128C123.634 22.8432 122.72 21.8149 121.045 21.8149H115.442V26.4109H121.044C122.658 26.4109 123.632 25.5641 123.632 24.1128H123.634Z" fill="#A2BDE6"/>
<path d="M130.854 30.1904V10.0205H134.72V30.1904H130.854Z" fill="#A2BDE6"/>
<path d="M147.802 30.1908V28.3433C146.797 29.4322 145.032 30.5506 142.626 30.5506C139.399 30.5506 137.877 28.7972 137.877 25.9549V15.584H141.745V24.4428C141.745 26.4693 142.81 27.1342 144.454 27.1342C145.946 27.1342 147.133 26.318 147.803 25.4712V15.584H151.67V30.1908H147.802Z" fill="#A2BDE6"/>
<path d="M153.761 28.2827L155.435 25.5035C156.531 26.5319 158.692 27.5292 160.52 27.5292C162.194 27.5292 162.986 26.8942 162.986 25.9873C162.986 23.5992 154.278 25.564 154.278 19.8195C154.278 17.3677 156.409 15.2236 160.306 15.2236C162.775 15.2236 164.752 16.0703 166.213 17.219L164.66 19.9405C163.777 19.0334 162.102 18.2472 160.306 18.2472C158.906 18.2472 157.995 18.8518 157.995 19.6682C157.995 21.8149 166.733 20.0005 166.733 25.8965C166.733 28.5879 164.422 30.5527 160.339 30.5527C157.779 30.5501 155.313 29.7037 153.761 28.2827Z" fill="#A2BDE6"/>
<path d="M170.016 26.5293V18.9399H167.58V15.5835H170.016V11.5928H173.882V15.5835H176.866V18.9399H173.882V25.5035C173.882 26.4426 174.37 27.1363 175.222 27.1363C175.8 27.1363 176.349 26.9245 176.562 26.6824L177.384 29.6166C176.806 30.1309 175.77 30.5553 174.156 30.5553C171.447 30.5501 170.016 29.1594 170.016 26.5293Z" fill="#A2BDE6"/>
<path d="M177.975 22.8705C177.975 18.6371 181.141 15.2207 185.586 15.2207C189.999 15.2207 192.954 18.4858 192.954 23.2329V24.1387H182.024C182.298 25.9224 183.757 27.4039 186.256 27.4039C187.504 27.4039 189.209 26.8899 190.153 25.9829L191.886 28.5226C190.425 29.8532 188.111 30.5483 185.827 30.5483C181.353 30.5498 177.975 27.5566 177.975 22.8705ZM185.586 18.3653C183.181 18.3653 182.146 20.0279 181.993 21.4792H189.242C189.118 20.0884 188.143 18.3653 185.586 18.3653Z" fill="#A2BDE6"/>
<path d="M195.212 30.1901V15.5833H199.079V17.5489C200.144 16.2787 201.94 15.2207 203.767 15.2207V18.97C203.493 18.9094 203.158 18.8792 202.702 18.8792C201.422 18.8792 199.718 19.6048 199.077 20.5422V30.1901H195.212Z" fill="#A2BDE6"/>
<path fill-rule="evenodd" clip-rule="evenodd" d="M21.1044 39.817C27.7063 39.6044 34.0512 36.1102 37.5971 30.009C43.0538 20.6196 39.816 8.61403 30.3633 3.19295C20.9105 -2.22817 8.82433 0.989229 3.36685 10.378C-0.179915 16.476 -0.053418 23.6846 3.06324 29.4732C3.83701 30.9127 5.89845 30.9536 6.71967 29.5397L9.00619 25.6067C9.01407 25.5926 9.02303 25.5783 9.03202 25.565C9.10352 25.4546 9.1962 25.3594 9.30475 25.2845C9.41333 25.21 9.53563 25.1572 9.66472 25.1296C9.79378 25.1019 9.92712 25.0997 10.057 25.1229C10.1869 25.1465 10.311 25.1952 10.4219 25.2665C10.6384 25.4115 10.791 25.6332 10.8484 25.886C10.9058 26.1391 10.8637 26.4044 10.7308 26.6276L7.27311 32.5775C7.02815 32.9978 6.93955 33.49 7.02279 33.9686C7.10604 34.4472 7.3558 34.8814 7.72852 35.1954L7.76698 35.2279C8.00102 35.4205 8.27457 35.56 8.56851 35.6368C8.86249 35.7131 9.16974 35.7249 9.46881 35.6714C9.76785 35.6179 10.0515 35.4999 10.2999 35.3261C10.5483 35.1519 10.7554 34.9265 10.9069 34.6645L16.1187 25.7044C16.1272 25.6904 16.1356 25.6764 16.1445 25.6627C16.2892 25.4403 16.517 25.2838 16.7777 25.2277C17.0384 25.172 17.3108 25.2211 17.535 25.365C17.752 25.5093 17.9052 25.731 17.9631 25.9838C18.021 26.2369 17.9793 26.5026 17.8465 26.7262L12.6499 35.6637C12.5903 35.7663 12.5394 35.8736 12.4976 35.9843C12.3059 36.4998 12.3281 37.0699 12.5594 37.5691C12.7907 38.0684 13.2121 38.4558 13.731 38.6462L13.779 38.6635C14.2395 38.8274 14.7433 38.8251 15.2024 38.6573C15.6614 38.4894 16.0464 38.1665 16.29 37.7451L19.7619 31.7724L19.7873 31.7311C19.8587 31.6207 19.9514 31.5255 20.0599 31.4506C20.1685 31.3757 20.2908 31.323 20.4198 31.2953C20.5489 31.2676 20.6822 31.2654 20.8122 31.2886C20.9421 31.3123 21.0662 31.361 21.1772 31.4318C21.395 31.5765 21.5488 31.7986 21.6068 32.0521C21.6649 32.3059 21.6228 32.572 21.4892 32.7959L19.2175 36.7042C18.3957 38.1174 19.4615 39.8694 21.1044 39.817ZM19.9993 22.3174C20.9801 27.3125 24.4845 31.1182 26.6037 33.021C26.7479 33.1502 26.9263 33.2343 27.1166 33.2635C27.3072 33.293 27.5019 33.266 27.6781 33.1863C27.8538 33.107 28.0029 32.9779 28.1077 32.8148C28.2125 32.6517 28.2682 32.4616 28.2686 32.2672V8.11121C28.2686 7.93425 28.2225 7.76038 28.1344 7.6071C28.0467 7.45379 27.9204 7.32649 27.7684 7.23794C27.6164 7.14942 27.444 7.10274 27.2682 7.10267C27.0928 7.10259 26.92 7.14908 26.768 7.23749L6.00778 19.3161C5.8407 19.4133 5.7051 19.5571 5.61725 19.7301C5.52944 19.9032 5.49317 20.0982 5.51279 20.2916C5.53241 20.485 5.60711 20.6686 5.72784 20.8202C5.84862 20.9717 6.0103 21.0849 6.19343 21.146C8.89021 22.043 13.9088 23.2005 18.6919 21.5562C18.7356 21.5408 18.7805 21.5288 18.8261 21.5202C18.9551 21.4949 19.0877 21.4954 19.2165 21.5217C19.3453 21.5481 19.4676 21.5998 19.5766 21.6738C19.6855 21.7478 19.779 21.8428 19.8515 21.9532C19.924 22.0636 19.9743 22.1874 19.9993 22.3174Z" fill="#A2BDE6"/>
<path d="M100.338 14.2747C99.9852 13.9617 99.4014 13.3356 99.2386 12.5182C99.2341 12.4968 99.226 12.4764 99.2137 12.4582C99.2014 12.44 99.1855 12.4245 99.1673 12.4123C99.149 12.4002 99.1286 12.3918 99.1071 12.3876C99.0855 12.3834 99.0632 12.3834 99.0417 12.3878C99.0346 12.389 99.0275 12.3908 99.0205 12.393C98.2237 12.6632 97.388 12.4733 96.9387 12.3262C96.8971 12.3123 96.8625 12.2825 96.8428 12.2434C96.8231 12.2043 96.8198 12.1591 96.8335 12.1176C96.8469 12.079 96.8733 12.0464 96.909 12.0257L100.366 10.0434C100.385 10.0326 100.407 10.0256 100.428 10.0228C100.45 10.0201 100.472 10.0216 100.493 10.0273C100.514 10.033 100.534 10.0428 100.552 10.0561C100.569 10.0695 100.583 10.086 100.594 10.105C100.609 10.1298 100.617 10.1581 100.617 10.1868V14.1515C100.617 14.1834 100.607 14.2146 100.589 14.2413C100.572 14.2681 100.547 14.2892 100.518 14.3022C100.489 14.3152 100.456 14.3195 100.424 14.3147C100.392 14.3098 100.363 14.2959 100.339 14.2747H100.338Z" fill="#A2BDE6"/>
</svg>
